<svg xmlns="http://www.w3.org/2000/svg" version="1.1" xmlns:xlink="http://www.w3.org/1999/xlink" xmlns:svgjs="http://svgjs.com/svgjs" width="701.6873779296875" height="639.9526977539062" viewBox="-350.84368896484375 -319.9763488769531 701.6873779296875 639.9526977539062"><path d="M-20.107542175655617,0A20.107542175655617,20.107542175655617,0,1,1,20.107542175655617,0A20.107542175655617,20.107542175655617,0,1,1,-20.107542175655617,0" fill="none" stroke-width="1" stroke="black" transform="matrix(-0.8033697709032651,-0.5954804876726317,0.5954804876726317,-0.8033697709032651,-7.170158399744173,13.598759653805672)"></path><line x1="-32.919941239867654" y1="48.33809632280393" x2="-35.52180224117348" y2="102.15572648511004" stroke-width="1" stroke="plum"></line><line x1="-33.180127339998236" y1="53.71985933903454" x2="-35.26161614104289" y2="96.77396346887943" stroke-width="1" stroke="black"></line><path d="M-0.000006005859376045919,30.294854116378996V-30.294841718787126" fill="none" stroke-width="1" stroke="black" transform="matrix(-0.9157223554639458,-0.4018116072285157,0.4018116072285157,-0.9157223554639458,-22.04806454191434,47.50525166501622)"></path><line x1="-35.52180224117348" y1="102.15572648511004" x2="23.638021474951856" y2="113.53177585907007" stroke-width="1" stroke="plum"></line><line x1="-29.60581986956095" y1="103.29333142250604" x2="17.722039103339323" y2="112.39417092167406" stroke-width="1" stroke="black"></line><path d="M-0.000006005859376045919,42.41385827737104V-42.4138409203076" fill="none" stroke-width="1" stroke="black" transform="matrix(-0.999915085000477,0.013031607287237885,-0.013031607287237885,-0.999915085000477,-6.494622902380916,65.4335203252693)"></path><line x1="23.638021474951856" y1="113.53177585907007" x2="81.11529983248224" y2="73.8957410558198" stroke-width="1" stroke="plum"></line><line x1="29.38574931070489" y1="109.56817237874503" x2="75.3675719967292" y2="77.85934453614482" stroke-width="1" stroke="black"></line><path d="M-0.000006005859376045919,44.91947162896439V-44.91945324652642" fill="none" stroke-width="1" stroke="black" transform="matrix(-0.8025864307434332,0.5965358507135311,-0.5965358507135311,-0.8025864307434332,25.58058808039028,57.66203320748217)"></path><line x1="81.11529983248224" y1="73.8957410558198" x2="97.73471403631747" y2="1.9579797648077844" stroke-width="1" stroke="plum"></line><line x1="82.77724125286575" y1="66.7019649267186" x2="96.07277261593394" y2="9.151755893908987" stroke-width="1" stroke="black"></line><path d="M-0.000006005859376045919,44.82525731728218V-44.82523897339963" fill="none" stroke-width="1" stroke="black" transform="matrix(-0.2442294525806373,0.9697174714792769,-0.9697174714792769,-0.2442294525806373,45.95718615890392,26.979235132947796)"></path><line x1="97.73471403631747" y1="1.9579797648077844" x2="61.452026555901675" y2="-64.40622796014091" stroke-width="1" stroke="plum"></line><line x1="94.10644528827589" y1="-4.678441007687084" x2="65.08029530394325" y2="-57.769807187646045" stroke-width="1" stroke="black"></line><path d="M-0.000006005859376045919,43.94591703660681V-43.94589905257751" fill="none" stroke-width="1" stroke="black" transform="matrix(0.4589801294925505,0.8884465322859905,-0.8884465322859905,0.4589801294925505,40.54978591199535,-11.053816945965258)"></path><line x1="61.452026555901675" y1="-64.40622796014091" x2="-11.578510621181696" y2="-88.82160781400748" stroke-width="1" stroke="plum"></line><line x1="54.14897283819334" y1="-66.84776594552757" x2="-4.275456903473362" y2="-86.38006982862082" stroke-width="1" stroke="black"></line><path d="M-0.000006005859376045919,43.090139567899215V-43.09012193408054" fill="none" stroke-width="1" stroke="black" transform="matrix(0.9421114754258976,0.3352998178807118,-0.3352998178807118,0.9421114754258976,10.488649091694684,-36.01821031743319)"></path><line x1="-11.578510621181696" y1="-88.82160781400748" x2="-84.66276198563139" y2="-59.13451690819801" stroke-width="1" stroke="plum"></line><line x1="-18.88693575762666" y1="-85.85289872342653" x2="-77.35433684918642" y2="-62.10322599877895" stroke-width="1" stroke="black"></line><path d="M-0.000006005859376045919,43.50512408375644V-43.50510628011327" fill="none" stroke-width="1" stroke="black" transform="matrix(0.9058606431692754,-0.423575843453031,0.423575843453031,0.9058606431692754,-29.692925043773418,-34.56849428010453)"></path><line x1="-84.66276198563139" y1="-59.13451690819801" x2="-134.38008834252702" y2="5.3811291180766325" stroke-width="1" stroke="plum"></line><line x1="-89.63449462132095" y1="-52.682952305570545" x2="-129.40835570683745" y2="-1.0704354845508348" stroke-width="1" stroke="black"></line><path d="M-0.000006005859376045919,49.528730623521234V-49.528710354831844" fill="none" stroke-width="1" stroke="black" transform="matrix(0.36774531441285857,-0.9299265474903853,0.9299265474903853,0.36774531441285857,-63.46336955952583,-8.66273814749806)"></path><line x1="-134.38008834252702" y1="5.3811291180766325" x2="-152.4701187813161" y2="84.26130533668623" stroke-width="1" stroke="plum"></line><line x1="-136.18909138640592" y1="13.26914673993759" x2="-150.6611157374372" y2="76.37328771482527" stroke-width="1" stroke="black"></line><path d="M-0.000006005859376045919,51.013595558255844V-51.01357468191377" fill="none" stroke-width="1" stroke="black" transform="matrix(0.26839052660988016,-0.9633101915925478,0.9633101915925478,0.26839052660988016,-94.28321466044487,58.51278219394105)"></path><line x1="-152.4701187813161" y1="84.26130533668623" x2="-126.70526293544314" y2="158.78134718395452" stroke-width="1" stroke="plum"></line><line x1="-149.8936331967288" y1="91.71330952141307" x2="-129.28174852003045" y2="151.3293429992277" stroke-width="1" stroke="black"></line><path d="M-0.000006005859376045919,51.78617246913958V-51.786151276635124" fill="none" stroke-width="1" stroke="black" transform="matrix(-0.4021052504659975,-0.9155934510183422,0.9155934510183422,-0.4021052504659975,-92.17264115432525,100.69785012185272)"></path><line x1="-126.70526293544314" y1="158.78134718395452" x2="-65.34818739013701" y2="209.62866603917197" stroke-width="1" stroke="plum"></line><line x1="-120.56955538091253" y1="163.86607906947626" x2="-71.48389494466764" y2="204.54393415365024" stroke-width="1" stroke="black"></line><path d="M-0.000006005859376045919,53.14255315792562V-53.142531410348205" fill="none" stroke-width="1" stroke="black" transform="matrix(-0.6466112640564563,-0.7628196858991723,0.7628196858991723,-0.6466112640564563,-55.48856522110213,149.84244964505965)"></path><line x1="-65.34818739013701" y1="209.62866603917197" x2="10.558615346608919" y2="223.42053584816057" stroke-width="1" stroke="plum"></line><line x1="-57.75750711646242" y1="211.00785302007083" x2="2.967935072934324" y2="222.0413488672617" stroke-width="1" stroke="black"></line><path d="M-0.000006005859376045919,49.8500891199737V-49.85006871977446" fill="none" stroke-width="1" stroke="black" transform="matrix(-0.9810693499964431,-0.19365673367470757,0.19365673367470757,-0.9810693499964431,-17.740997098619065,167.61824005492142)"></path><line x1="10.558615346608919" y1="223.42053584816057" x2="86.99427940667525" y2="202.86382107047598" stroke-width="1" stroke="plum"></line><line x1="18.202181752615548" y1="221.3648643703921" x2="79.35071300066862" y2="204.91949254824445" stroke-width="1" stroke="black"></line><path d="M-0.000006005859376045919,53.76721598656598V-53.76719398335721" fill="none" stroke-width="1" stroke="black" transform="matrix(-0.9995459379392762,-0.03013167683838412,0.03013167683838412,-0.9995459379392762,50.396530997504826,159.39941216049593)"></path><line x1="86.99427940667525" y1="202.86382107047598" x2="148.30869865817107" y2="154.95184522822754" stroke-width="1" stroke="plum"></line><line x1="93.12572133182482" y1="198.07262348625113" x2="142.1772567330215" y2="159.74304281245236" stroke-width="1" stroke="black"></line><path d="M-0.000006005859376045919,48.29663505675179V-48.29661529227403" fill="none" stroke-width="1" stroke="black" transform="matrix(-0.7937891134085076,0.6081930971608733,-0.6081930971608733,-0.7937891134085076,88.2778101289057,140.57051687624067)"></path><line x1="148.30869865817107" y1="154.95184522822754" x2="188.20204959088346" y2="85.06256528371703" stroke-width="1" stroke="plum"></line><line x1="152.29803375144232" y1="147.9629172337765" x2="184.2127144976122" y2="92.05149327816808" stroke-width="1" stroke="black"></line><path d="M-0.000006005859376045919,51.21193011454039V-51.21190915703367" fill="none" stroke-width="1" stroke="black" transform="matrix(-0.7212414033463977,0.6926837937319732,-0.6926837937319732,-0.7212414033463977,132.7817064785734,83.07107393363194)"></path><line x1="188.20204959088346" y1="85.06256528371703" x2="200.29991189800907" y2="6.427968770199394" stroke-width="1" stroke="plum"></line><line x1="189.41183582159604" y1="77.19910563236527" x2="199.09012566729652" y2="14.29142842155116" stroke-width="1" stroke="black"></line><path d="M-0.000006005859376045919,47.3027229060405V-47.302703548302354" fill="none" stroke-width="1" stroke="black" transform="matrix(-0.07437804071692042,0.9972301174047603,-0.9972301174047603,-0.07437804071692042,147.07929368562418,42.22699823554584)"></path><line x1="200.29991189800907" y1="6.427968770199394" x2="183.23481991217992" y2="-72.73836688217027" stroke-width="1" stroke="plum"></line><line x1="198.59340269942615" y1="-1.4886647950375647" x2="184.94132911076284" y2="-64.8217333169333" stroke-width="1" stroke="black"></line><path d="M-0.000006005859376045919,50.48578977077969V-50.485769110432074" fill="none" stroke-width="1" stroke="black" transform="matrix(0.017212446329385324,0.9998518548721895,-0.9998518548721895,0.017212446329385324,141.28907342096403,-32.28619807266152)"></path><line x1="183.23481991217992" y1="-72.73836688217027" x2="139.123740176874" y2="-138.03904401372887" stroke-width="1" stroke="plum"></line><line x1="178.82371193864932" y1="-79.26843459532614" x2="143.5348481504046" y2="-131.508976300573" stroke-width="1" stroke="black"></line><path d="M-0.000006005859376045919,49.61574342077094V-49.61572311647322" fill="none" stroke-width="1" stroke="black" transform="matrix(0.6726508077130353,0.7399600603296107,-0.7399600603296107,0.6726508077130353,124.46562433717321,-72.01463689875017)"></path><line x1="139.123740176874" y1="-138.03904401372887" x2="73.08228677862533" y2="-183.2268337694751" stroke-width="1" stroke="plum"></line><line x1="132.51959483704914" y1="-142.5578229893035" x2="79.6864321184502" y2="-178.70805479390046" stroke-width="1" stroke="black"></line><path d="M-0.000006005859376045919,52.569484002923495V-52.56946248986372" fill="none" stroke-width="1" stroke="black" transform="matrix(0.7192113361757289,0.6947913743824996,-0.6947913743824996,0.7192113361757289,69.5782047629534,-122.8243720533741)"></path><line x1="73.08228677862533" y1="-183.2268337694751" x2="-3.3574277857151933" y2="-200.42310795076486" stroke-width="1" stroke="plum"></line><line x1="65.43831532219127" y1="-184.94646118760406" x2="4.2865436707188636" y2="-198.7034805326359" stroke-width="1" stroke="black"></line><path d="M-0.000006005859376045919,52.037032431323084V-52.03701113615897" fill="none" stroke-width="1" stroke="black" transform="matrix(0.9963094411332051,0.0858341278795366,-0.0858341278795366,0.9963094411332051,30.395878268490943,-139.9799964645066)"></path><line x1="-3.3574277857151933" y1="-200.42310795076486" x2="-83.17259328545902" y2="-188.43612785735942" stroke-width="1" stroke="plum"></line><line x1="-11.338944335689568" y1="-199.2244099414243" x2="-75.19107673548464" y2="-189.63482586669994" stroke-width="1" stroke="black"></line><path d="M-0.000006005859376045919,54.24723691410249V-54.247214714454294" fill="none" stroke-width="1" stroke="black" transform="matrix(0.9991884660819454,0.040279141609633196,-0.040279141609633196,0.9991884660819454,-45.450041675021616,-140.22641765853228)"></path><line x1="-83.17259328545902" y1="-188.43612785735942" x2="-153.86425105785543" y2="-150.51260227661277" stroke-width="1" stroke="plum"></line><line x1="-90.24175906269866" y1="-184.64377529928475" x2="-146.79508528061578" y2="-154.3049548346874" stroke-width="1" stroke="black"></line><path d="M-0.000006005859376045919,53.387904169071724V-53.38788232108908" fill="none" stroke-width="1" stroke="black" transform="matrix(0.8049266504757256,-0.5933743231333228,0.5933743231333228,0.8049266504757256,-86.83942649315772,-126.50103018062391)"></path><line x1="-153.86425105785543" y1="-150.51260227661277" x2="-208.8613326787436" y2="-89.64026511477347" stroke-width="1" stroke="plum"></line><line x1="-159.36395921994423" y1="-144.42536856042884" x2="-203.36162451665476" y2="-95.72749883095739" stroke-width="1" stroke="black"></line><path d="M-0.000006005859376045919,52.95370165297078V-52.953679982677244" fill="none" stroke-width="1" stroke="black" transform="matrix(0.7920106056009562,-0.6105073305175023,0.6105073305175023,0.7920106056009562,-149.03418508725733,-78.13655207177986)"></path><line x1="-208.8613326787436" y1="-89.64026511477347" x2="-245.3534366544931" y2="-14.921712532739221" stroke-width="1" stroke="plum"></line><line x1="-212.51054307631856" y1="-82.16840985657005" x2="-241.70422625691813" y2="-22.393567790942644" stroke-width="1" stroke="black"></line><path d="M-0.000006005859376045919,54.13453850204264V-54.134516348514126" fill="none" stroke-width="1" stroke="black" transform="matrix(0.21117637409218845,-0.9774479725413912,0.9774479725413912,0.21117637409218845,-174.19371881404365,-40.84905294888818)"></path><line x1="-245.3534366544931" y1="-14.921712532739221" x2="-257.6478736980816" y2="68.64348920746902" stroke-width="1" stroke="plum"></line><line x1="-246.58288035885195" y1="-6.565192358718399" x2="-256.4184299937227" y2="60.286969033448194" stroke-width="1" stroke="black"></line><path d="M-0.000006005859376045919,49.3009949776179V-49.300974802124976" fill="none" stroke-width="1" stroke="black" transform="matrix(0.16393482543799145,-0.9864711719095572,0.9864711719095572,0.16393482543799145,-202.86667326037912,34.94303998127201)"></path><line x1="-257.6478736980816" y1="68.64348920746902" x2="-243.37513288846918" y2="151.4142424909676" stroke-width="1" stroke="plum"></line><line x1="-256.22059961712034" y1="76.92056453581887" x2="-244.80240696943042" y2="143.13716716261774" stroke-width="1" stroke="black"></line><path d="M-0.000006005859376045919,50.182919741970395V-50.18289920556657" fill="none" stroke-width="1" stroke="black" transform="matrix(0.10305515292036585,-0.9946756433413658,0.9946756433413658,0.10305515292036585,-200.59580067326965,115.20047390347851)"></path><line x1="-243.37513288846918" y1="151.4142424909676" x2="-202.53619888121204" y2="223.80170828559932" stroke-width="1" stroke="plum"></line><line x1="-239.29123948774347" y1="158.6529890704308" x2="-206.62009228193776" y2="216.56296170613615" stroke-width="1" stroke="black"></line><path d="M-0.000006005859376045919,47.873042402462204V-47.87302281133167" fill="none" stroke-width="1" stroke="black" transform="matrix(-0.6212055468586845,-0.7836476686317664,0.7836476686317664,-0.6212055468586845,-185.4400928384226,157.86899094303928)"></path><line x1="-202.53619888121204" y1="223.80170828559932" x2="-140.85961929299995" y2="278.5130148964527" stroke-width="1" stroke="plum"></line><line x1="-196.36854092239082" y1="229.27283894668466" x2="-147.02727725182115" y2="273.0418842353674" stroke-width="1" stroke="black"></line><path d="M-0.000006005859376045919,45.46726375390664V-45.46724514729519" fill="none" stroke-width="1" stroke="black" transform="matrix(-0.6626430694906942,-0.748935352654654,0.748935352654654,-0.6626430694906942,-137.64589202068728,221.02881003722746)"></path><line x1="-140.85961929299995" y1="278.5130148964527" x2="-66.45191351447004" y2="312.37206436064383" stroke-width="1" stroke="plum"></line><line x1="-133.41884871514696" y1="281.8989198428718" x2="-73.89268409232302" y2="308.98615941422474" stroke-width="1" stroke="black"></line><path d="M-0.000006005859376045919,49.38487916915862V-49.3848589593377" fill="none" stroke-width="1" stroke="black" transform="matrix(-0.7191083954432502,-0.694897917397249,0.694897917397249,-0.7191083954432502,-69.33834350904658,259.92948272052666)"></path><line x1="-66.45191351447004" y1="312.37206436064383" x2="13.69921758324486" y2="319.97630371529635" stroke-width="1" stroke="plum"></line><line x1="-58.436800404698545" y1="313.1324882961091" x2="5.684104473473369" y2="319.21587977983114" stroke-width="1" stroke="black"></line><path d="M-0.000006005859376045919,44.844665399345V-44.844647047520056" fill="none" stroke-width="1" stroke="black" transform="matrix(-0.9999477779098539,0.010219660128670064,-0.010219660128670064,-0.9999477779098539,-26.83465698533073,271.3318945944972)"></path><line x1="13.69921758324486" y1="319.97630371529635" x2="92.23625066403802" y2="302.70632487332364" stroke-width="1" stroke="plum"></line><line x1="21.552920891324174" y1="318.2493058310991" x2="84.3825473559587" y2="304.4333227575209" stroke-width="1" stroke="black"></line><path d="M-0.000006005859376045919,44.22985412847548V-44.22983602825034" fill="none" stroke-width="1" stroke="black" transform="matrix(-0.9990903872350753,0.04264267972896703,-0.04264267972896703,-0.9990903872350753,51.081643406574216,267.1517186765189)"></path><line x1="92.23625066403802" y1="302.70632487332364" x2="163.3024604672727" y2="266.1025992221898" stroke-width="1" stroke="plum"></line><line x1="99.34287164436148" y1="299.0459523082103" x2="156.19583948694924" y2="269.7629717873032" stroke-width="1" stroke="black"></line><path d="M-0.000006005859376045919,47.69132929345757V-47.69130977668967" fill="none" stroke-width="1" stroke="black" transform="matrix(-0.9954324084713767,0.09546894869471564,-0.09546894869471564,-0.9954324084713767,123.21630473397025,236.93100245275923)"></path><line x1="163.3024604672727" y1="266.1025992221898" x2="221.14225618538043" y2="210.91474673701018" stroke-width="1" stroke="plum"></line><line x1="169.08644003908347" y1="260.5838139736718" x2="215.35827661356967" y2="216.43353198552813" stroke-width="1" stroke="black"></line><path d="M-0.000006005859376045919,42.95810206954966V-42.95808448976482" fill="none" stroke-width="1" stroke="black" transform="matrix(-0.6243382106115635,0.7811541453326296,-0.7811541453326296,-0.6243382106115635,158.66546334825665,211.68831214020716)"></path><line x1="221.14225618538043" y1="210.91474673701018" x2="262.662915887747" y2="142.02831596009608" stroke-width="1" stroke="plum"></line><line x1="225.2943221556171" y1="204.02610365931878" x2="258.5108499175103" y2="148.91695903778748" stroke-width="1" stroke="black"></line><path d="M-0.000006005859376045919,41.76071819141108V-41.760701101632776" fill="none" stroke-width="1" stroke="black" transform="matrix(-0.608441476719881,0.7935987458451094,-0.7935987458451094,-0.608441476719881,208.7613400980912,151.06260778028602)"></path><line x1="262.662915887747" y1="142.02831596009608" x2="286.9905127914263" y2="65.11311790514584" stroke-width="1" stroke="plum"></line><line x1="265.0956755781149" y1="134.33679615460107" x2="284.5577531010583" y2="72.80463771064088" stroke-width="1" stroke="black"></line><path d="M-0.000006005859376045919,44.630010836702546V-44.6299925727209" fill="none" stroke-width="1" stroke="black" transform="matrix(-0.5830484560784942,0.8124373808882037,-0.8124373808882037,-0.5830484560784942,238.56763401181536,77.54928747100911)"></path><line x1="286.9905127914263" y1="65.11311790514584" x2="291.34967827991557" y2="-15.375235737983555" stroke-width="1" stroke="plum"></line><line x1="287.42642934027526" y1="57.064282540832906" x2="290.91376173106664" y2="-7.326400373670623" stroke-width="1" stroke="black"></line><path d="M-0.000006005859376045919,43.73449971022706V-43.73448181271628" fill="none" stroke-width="1" stroke="black" transform="matrix(0.21480408069990164,0.9766571593525899,-0.9766571593525899,0.21480408069990164,246.45649661514653,34.26329961433565)"></path><line x1="291.34967827991557" y1="-15.375235737983555" x2="276.1554664314138" y2="-94.29949760290472" stroke-width="1" stroke="plum"></line><line x1="289.8302570950654" y1="-23.267661924475675" x2="277.674887616264" y2="-86.4070714164126" stroke-width="1" stroke="black"></line><path d="M-0.000006005859376045919,42.527735697060685V-42.52771829339509" fill="none" stroke-width="1" stroke="black" transform="matrix(0.22942622472490662,0.9733260540068146,-0.9733260540068146,0.22942622472490662,242.35923225083903,-45.080379519267154)"></path><line x1="276.1554664314138" y1="-94.29949760290472" x2="243.69996204156897" y2="-167.05554334401964" stroke-width="1" stroke="plum"></line><line x1="272.9099159924293" y1="-101.57510217701622" x2="246.94551248055348" y2="-159.77993876990814" stroke-width="1" stroke="black"></line><path d="M-0.000006005859376045919,45.87083465248288V-45.87081588071772" fill="none" stroke-width="1" stroke="black" transform="matrix(0.2480872578601525,0.9687376902378838,-0.9687376902378838,0.2480872578601525,215.4909254205484,-119.29753928892092)"></path><line x1="243.69996204156897" y1="-167.05554334401964" x2="193.96874450143315" y2="-227.70435875871723" stroke-width="1" stroke="plum"></line><line x1="238.7268402875554" y1="-173.1204248854894" x2="198.94186625544674" y2="-221.63947721724747" stroke-width="1" stroke="black"></line><path d="M-0.000006005859376045919,48.854547110609644V-48.85452711781701" fill="none" stroke-width="1" stroke="black" transform="matrix(0.8473330168755373,0.5310619158936182,-0.5310619158936182,0.8473330168755373,192.88957547998763,-155.9838855932119)"></path><line x1="193.96874450143315" y1="-227.70435875871723" x2="130.6169720375388" y2="-273.27817233346434" stroke-width="1" stroke="plum"></line><line x1="187.63356725504372" y1="-232.26174011619196" x2="136.95214928392824" y2="-268.72079097598964" stroke-width="1" stroke="black"></line><path d="M-0.000006005859376045919,47.69113311408141V-47.69111359739379" fill="none" stroke-width="1" stroke="black" transform="matrix(0.8478778839131166,0.530191563466466,-0.530191563466466,0.8478778839131166,137.00743326714155,-210.0550136264155)"></path><line x1="130.6169720375388" y1="-273.27817233346434" x2="59.707366258140894" y2="-303.6374081765817" stroke-width="1" stroke="plum"></line><line x1="123.526011459599" y1="-276.3140959177761" x2="66.79832683608069" y2="-300.60148459226997" stroke-width="1" stroke="black"></line><path d="M-0.000006005859376045919,51.25649502032573V-51.25647404458167" fill="none" stroke-width="1" stroke="black" transform="matrix(0.8483759862710902,0.5293941687613823,-0.5293941687613823,0.8483759862710902,68.02729145251968,-244.9730166126507)"></path><line x1="59.707366258140894" y1="-303.6374081765817" x2="-15.926239565602199" y2="-313.6643834285931" stroke-width="1" stroke="plum"></line><line x1="52.144005675766586" y1="-304.64010570178283" x2="-8.362878983227894" y2="-312.66168590339197" stroke-width="1" stroke="black"></line><path d="M-0.000006005859376045919,52.89476357219767V-52.89474192602342" fill="none" stroke-width="1" stroke="black" transform="matrix(0.9938919415841088,-0.11035763885735515,0.11035763885735515,0.9938919415841088,27.727901814225827,-256.0792301713683)"></path><line x1="-15.926239565602199" y1="-313.6643834285931" x2="-92.51316429625582" y2="-303.28966025060686" stroke-width="1" stroke="plum"></line><line x1="-23.584932038667564" y1="-312.6269111107945" x2="-84.85447182319047" y2="-304.32713256840543" stroke-width="1" stroke="black"></line><path d="M-0.000006005859376045919,51.557555018980906V-51.557533920033784" fill="none" stroke-width="1" stroke="black" transform="matrix(0.9954185081934405,-0.09561377278376514,0.09561377278376514,0.9954185081934405,-49.29009192475375,-257.15569059041985)"></path><line x1="-92.51316429625582" y1="-303.28966025060686" x2="-166.00630897671326" y2="-278.56423142419277" stroke-width="1" stroke="plum"></line><line x1="-99.86247876430157" y1="-300.8171173679654" x2="-158.65699450866754" y2="-281.03677430683416" stroke-width="1" stroke="black"></line><path d="M-0.000006005859376045919,54.86700100374807V-54.86697855047323" fill="none" stroke-width="1" stroke="black" transform="matrix(0.9961119417071858,-0.08809653562053468,0.08809653562053468,0.9961119417071858,-124.42614615884823,-236.2732849753138)"></path><line x1="-166.00630897671326" y1="-278.56423142419277" x2="-230.71689630239322" y2="-237.56001612940102" stroke-width="1" stroke="plum"></line><line x1="-172.47736770928125" y1="-274.4638098947136" x2="-224.24583756982523" y2="-241.6604376588802" stroke-width="1" stroke="black"></line><path d="M-0.000006005859376045919,53.666592329571166V-53.66657036754071" fill="none" stroke-width="1" stroke="black" transform="matrix(0.7428178235060117,-0.6694936004785943,0.6694936004785943,0.7428178235060117,-162.4321806353462,-218.1976334350499)"></path><line x1="-230.71689630239322" y1="-237.56001612940102" x2="-282.759410525734" y2="-181.4419295497897" stroke-width="1" stroke="plum"></line><line x1="-235.92114772472732" y1="-231.9482074714399" x2="-277.55515910339994" y2="-187.05373820775083" stroke-width="1" stroke="black"></line><path d="M-0.000006005859376045919,52.629226894266274V-52.62920535675786" fill="none" stroke-width="1" stroke="black" transform="matrix(0.764614169211343,-0.6444883026411323,0.6444883026411323,0.764614169211343,-222.81924950774723,-169.25993140176826)"></path><line x1="-282.759410525734" y1="-181.4419295497897" x2="-320.7934366538351" y2="-124.14537705674721" stroke-width="1" stroke="plum"></line><line x1="-286.5628131385441" y1="-175.71227430048546" x2="-316.990034041025" y2="-129.87503230605145" stroke-width="1" stroke="black"></line><path d="M-0.000006005859376045919,56.345802389379216V-56.345779330933084" fill="none" stroke-width="1" stroke="black" transform="matrix(0.8027343354579439,-0.5963368064080005,0.5963368064080005,0.8027343354579439,-268.1753640836427,-107.56295561147651)"></path><line x1="-320.7934366538351" y1="-124.14537705674721" x2="-350.84367535263954" y2="-70.7649588408804" stroke-width="1" stroke="plum"></line><line x1="-323.7984605237155" y1="-118.80733523516052" x2="-347.8386514827591" y2="-76.10300066246707" stroke-width="1" stroke="black"></line><path d="M-0.000006005859376045919,50.00203247995259V-50.00201201757343" fill="none" stroke-width="1" stroke="black" transform="matrix(0.37471128282073546,-0.927141550426276,0.927141550426276,0.37471128282073546,-289.4596199520039,-78.71884527524547)"></path></svg>