<svg xmlns="http://www.w3.org/2000/svg" version="1.1" xmlns:xlink="http://www.w3.org/1999/xlink" xmlns:svgjs="http://svgjs.com/svgjs" width="530.90771484375" height="487.7477722167969" viewBox="-265.453857421875 -243.87388610839844 530.90771484375 487.7477722167969"><path d="M-6.876322012457834,0A6.876322012457834,6.876322012457834,0,1,1,6.876322012457834,0A6.876322012457834,6.876322012457834,0,1,1,-6.876322012457834,0" fill="none" stroke-width="1" stroke="black" transform="matrix(-0.6489151642051317,-0.7608607689088898,0.7608607689088898,-0.6489151642051317,8.874323508499486,163.80355338149604)"></path><line x1="-2.377125209057058" y1="173.3995740865314" x2="9.780575889480433" y2="180.3096608462149" stroke-width="1" stroke="plum"></line><line x1="-1.161355099203309" y1="174.09058276249976" x2="8.564805779626685" y2="179.61865217024655" stroke-width="1" stroke="black"></line><path d="M-0.000006005859376045919,6.317431758848836V-6.317429173560248" fill="none" stroke-width="1" stroke="black" transform="matrix(-0.9296468120881749,-0.3684519029321107,0.3684519029321107,-0.9296468120881749,6.029382399679509,170.9816391756901)"></path><line x1="9.780575889480433" y1="180.3096608462149" x2="50.5519697641661" y2="183.32512537035467" stroke-width="1" stroke="plum"></line><line x1="13.857715276948998" y1="180.6112072986289" x2="46.47483037669754" y2="183.02357891794068" stroke-width="1" stroke="black"></line><path d="M-0.000006005859376045919,12.550450090251477V-12.550444954218888" fill="none" stroke-width="1" stroke="black" transform="matrix(-0.6458915680157904,0.763429160018206,-0.763429160018206,-0.6458915680157904,20.584887932772936,173.71117452521145)"></path><line x1="50.5519697641661" y1="183.32512537035467" x2="73.60513235455575" y2="180.84526588785337" stroke-width="1" stroke="plum"></line><line x1="52.85728602320506" y1="183.07713942210455" x2="71.29981609551679" y2="181.0932518361035" stroke-width="1" stroke="black"></line><path d="M-0.000006005859376045919,25.31588914467943V-25.315878784634112" fill="none" stroke-width="1" stroke="black" transform="matrix(-0.3249635438576414,0.945726543543895,-0.945726543543895,-0.3249635438576414,38.136646115419516,173.8584698790831)"></path><line x1="73.60513235455575" y1="180.84526588785337" x2="68.58511185065043" y2="159.49121147747314" stroke-width="1" stroke="plum"></line><line x1="73.1031303041652" y1="178.70986044681536" x2="69.08711390104096" y2="161.62661691851116" stroke-width="1" stroke="black"></line><path d="M-0.000006005859376045919,28.145472724349233V-28.145461206350745" fill="none" stroke-width="1" stroke="black" transform="matrix(-0.10176091636906763,0.9948088841077605,-0.9948088841077605,-0.10176091636906763,43.095761810577656,167.3041425761466)"></path><line x1="68.58511185065043" y1="159.49121147747314" x2="31.31756307135184" y2="148.51548163600356" stroke-width="1" stroke="plum"></line><line x1="64.85835697272057" y1="158.39363849332616" x2="35.0443179492817" y2="149.6130546201505" stroke-width="1" stroke="black"></line><path d="M-0.000006005859376045919,19.003463311154192V-19.003455534348884" fill="none" stroke-width="1" stroke="black" transform="matrix(0.2320679179902291,0.9726995843731405,-0.9726995843731405,0.2320679179902291,31.4666802808379,158.41344839920444)"></path><line x1="31.31756307135184" y1="148.51548163600356" x2="-18.933734110442458" y2="155.98345456515491" stroke-width="1" stroke="plum"></line><line x1="26.292433353172413" y1="149.2622789289187" x2="-13.90860439226303" y2="155.23665727223977" stroke-width="1" stroke="black"></line><path d="M-0.000006005859376045919,5.337619846213702V-5.337617661894472" fill="none" stroke-width="1" stroke="black" transform="matrix(0.9740932880380688,-0.22614655911418102,0.22614655911418102,0.9740932880380688,7.398998171812619,157.44880514349398)"></path><line x1="-18.933734110442458" y1="155.98345456515491" x2="-53.125695107086855" y2="158.28386388350378" stroke-width="1" stroke="plum"></line><line x1="-22.352930210106898" y1="156.2134954969898" x2="-49.706499007422416" y2="158.05382295166888" stroke-width="1" stroke="black"></line><path d="M-0.000006005859376045919,20.428518860743395V-20.428510500761256" fill="none" stroke-width="1" stroke="black" transform="matrix(0.1469246564473671,-0.9891476863076732,0.9891476863076732,0.1469246564473671,-15.822906352745154,160.13510890859686)"></path><line x1="-53.125695107086855" y1="158.28386388350378" x2="-70.51006161355463" y2="149.55658796610425" stroke-width="1" stroke="plum"></line><line x1="-54.86413175773363" y1="157.41113629176382" x2="-68.77162496290785" y2="150.4293155578442" stroke-width="1" stroke="black"></line><path d="M-0.000006005859376045919,32.12089186461704V-32.12087871975401" fill="none" stroke-width="1" stroke="black" transform="matrix(0.13846123817540498,-0.9903678536397139,0.9903678536397139,0.13846123817540498,-30.006400249539215,158.3677239053247)"></path><line x1="-70.51006161355463" y1="149.55658796610425" x2="-61.7739397250877" y2="139.75917744564524" stroke-width="1" stroke="plum"></line><line x1="-69.63644942470793" y1="148.57684691405834" x2="-62.64755191393439" y2="140.73891849769112" stroke-width="1" stroke="black"></line><path d="M-0.000006005859376045919,34.60841938304865V-34.60840522021237" fill="none" stroke-width="1" stroke="black" transform="matrix(0.41864189393527224,-0.9081513996257938,0.9081513996257938,0.41864189393527224,-34.71233438523162,159.14641232927994)"></path><line x1="-61.7739397250877" y1="139.75917744564524" x2="-20.536049436289368" y2="137.73779807679077" stroke-width="1" stroke="plum"></line><line x1="-57.650150696207874" y1="139.5570395087598" x2="-24.659838465169205" y2="137.9399360136762" stroke-width="1" stroke="black"></line><path d="M-0.000006005859376045919,26.48587062580221V-26.485859786964266" fill="none" stroke-width="1" stroke="black" transform="matrix(0.6474305815242181,-0.7621244269193928,0.7621244269193928,0.6474305815242181,-20.969477094676655,155.8962435687442)"></path><line x1="-20.536049436289368" y1="137.73779807679077" x2="30.11480550975457" y2="153.13328985711084" stroke-width="1" stroke="plum"></line><line x1="-15.470963941684973" y1="139.27734725482279" x2="25.04972001515018" y2="151.59374067907882" stroke-width="1" stroke="black"></line><path d="M-0.000006005859376045919,19.961072347527374V-19.96106417883881" fill="none" stroke-width="1" stroke="black" transform="matrix(0.8201882088389106,-0.5720937878369415,0.5720937878369415,0.8201882088389106,16.208977429984497,161.8073733305639)"></path><line x1="30.11480550975457" y1="153.13328985711084" x2="76.41881168868704" y2="175.21044051762618" stroke-width="1" stroke="plum"></line><line x1="34.74520612764782" y1="155.34100492316236" x2="71.7884110707938" y2="173.00272545157463" stroke-width="1" stroke="black"></line><path d="M-0.000006005859376045919,13.080996335851372V-13.08099098270284" fill="none" stroke-width="1" stroke="black" transform="matrix(0.6070248267384132,0.7946828673900045,-0.7946828673900045,0.6070248267384132,42.871567415094276,172.1123586488452)"></path><line x1="76.41881168868704" y1="175.21044051762618" x2="116.20103608623026" y2="184.7570165977803" stroke-width="1" stroke="plum"></line><line x1="80.39703412844136" y1="176.1650981256416" x2="112.22281364647594" y2="183.80235898976488" stroke-width="1" stroke="black"></line><path d="M-0.000006005859376045919,15.433121385914163V-15.433115070203264" fill="none" stroke-width="1" stroke="black" transform="matrix(0.0612747345847029,0.9981209380138132,-0.9981209380138132,0.0612747345847029,80.90580428449213,180.9293983153601)"></path><line x1="116.20103608623026" y1="184.7570165977803" x2="142.26125005494296" y2="178.43379877316335" stroke-width="1" stroke="plum"></line><line x1="118.80705748310152" y1="184.1246948153186" x2="139.65522865807168" y2="179.06612055562505" stroke-width="1" stroke="black"></line><path d="M-0.000006005859376045919,30.219477669025576V-30.21946530228008" fill="none" stroke-width="1" stroke="black" transform="matrix(0.007293462571647379,0.9999734023481405,-0.9999734023481405,0.007293462571647379,99.0124764253731,181.81582394611814)"></path><line x1="142.26125005494296" y1="178.43379877316335" x2="146.59203250888334" y2="156.2855331476484" stroke-width="1" stroke="plum"></line><line x1="142.694328300337" y1="176.21897221061187" x2="146.15895426348928" y2="158.50035971019992" stroke-width="1" stroke="black"></line><path d="M-0.000006005859376045919,33.0233856189551V-33.0233721047637" fill="none" stroke-width="1" stroke="black" transform="matrix(0.03827160707095238,0.9992673736754376,-0.9992673736754376,0.03827160707095238,111.42745568712084,168.6235333555835)"></path><line x1="146.59203250888334" y1="156.2855331476484" x2="133.2827340191241" y2="124.18330158160748" stroke-width="1" stroke="plum"></line><line x1="145.2611026599074" y1="153.07530999104432" x2="134.6136638681" y2="127.39352473821157" stroke-width="1" stroke="black"></line><path d="M-0.000006005859376045919,33.78086601552861V-33.78085219135278" fill="none" stroke-width="1" stroke="black" transform="matrix(0.3987530375537588,0.9170583487661244,-0.9170583487661244,0.3987530375537588,108.95836912696882,153.7046470526174)"></path><line x1="133.2827340191241" y1="124.18330158160748" x2="101.15973171576807" y2="102.36226950293127" stroke-width="1" stroke="plum"></line><line x1="130.07043378878848" y1="122.00119837373985" x2="104.37203194610368" y2="104.5443727107989" stroke-width="1" stroke="black"></line><path d="M-0.000006005859376045919,35.38791673211474V-35.38790225028402" fill="none" stroke-width="1" stroke="black" transform="matrix(0.5179382878728258,0.8554179855224964,-0.8554179855224964,0.5179382878728258,86.9497835656724,131.60154681413934)"></path><line x1="101.15973171576807" y1="102.36226950293127" x2="52.4329892725393" y2="102.47287758457118" stroke-width="1" stroke="plum"></line><line x1="96.2870574714452" y1="102.37333031109526" x2="57.30566351686218" y2="102.46181677640718" stroke-width="1" stroke="black"></line><path d="M-0.000006005859376045919,26.168762975684935V-26.16875226661725" fill="none" stroke-width="1" stroke="black" transform="matrix(0.887073020470311,0.46162913291264357,-0.46162913291264357,0.887073020470311,64.71610209247459,125.63117481824835)"></path><line x1="52.4329892725393" y1="102.47287758457118" x2="1.1153945815838513" y2="122.50022447636617" stroke-width="1" stroke="plum"></line><line x1="47.30122980344376" y1="104.47561227375068" x2="6.247154050679395" y2="120.49748978718667" stroke-width="1" stroke="black"></line><path d="M-0.000006005859376045919,20.1483484306689V-20.14834018534117" fill="none" stroke-width="1" stroke="black" transform="matrix(0.8880786026805778,0.45969163083627324,-0.45969163083627324,0.8880786026805778,17.512168157488738,130.37986689980787)"></path><line x1="1.1153945815838513" y1="122.50022447636617" x2="-46.22944333915301" y2="148.44717717297485" stroke-width="1" stroke="plum"></line><line x1="-3.619089210489836" y1="125.09491974602705" x2="-41.49495954707932" y2="145.852481903314" stroke-width="1" stroke="black"></line><path d="M-0.000006005859376045919,14.978501313465408V-14.978495183799113" fill="none" stroke-width="1" stroke="black" transform="matrix(0.5039954925395094,-0.8637062831193585,0.8637062831193585,0.5039954925395094,-9.620007342143625,143.0227923306114)"></path><line x1="-46.22944333915301" y1="148.44717717297485" x2="-89.1961117590436" y2="162.27015457177438" stroke-width="1" stroke="plum"></line><line x1="-50.526110181142066" y1="149.8294749128548" x2="-84.89944491705455" y2="160.88785683189442" stroke-width="1" stroke="black"></line><path d="M-0.000006005859376045919,14.279738604319036V-14.279732760608068" fill="none" stroke-width="1" stroke="black" transform="matrix(0.055935702233091335,-0.9984343730139157,0.9984343730139157,0.055935702233091335,-53.45540775240906,156.15740958528764)"></path><line x1="-89.1961117590436" y1="162.27015457177438" x2="-121.07418253757122" y2="159.70175806209167" stroke-width="1" stroke="plum"></line><line x1="-92.38391883689636" y1="162.01331492080612" x2="-117.88637545971847" y2="159.95859771305993" stroke-width="1" stroke="black"></line><path d="M-0.000006005859376045919,31.14573299324595V-31.145720247448107" fill="none" stroke-width="1" stroke="black" transform="matrix(-0.055658799942611976,-0.9984498475081001,0.9984498475081001,-0.055658799942611976,-74.03771455882713,159.25242266924033)"></path><line x1="-121.07418253757122" y1="159.70175806209167" x2="-133.56324569684344" y2="139.9097828889103" stroke-width="1" stroke="plum"></line><line x1="-122.32308885349843" y1="157.72256054477353" x2="-132.3143393809162" y2="141.88898040622846" stroke-width="1" stroke="black"></line><path d="M-0.000006005859376045919,29.533477598215615V-29.533465512202575" fill="none" stroke-width="1" stroke="black" transform="matrix(0.06269175058580514,-0.9980329375368767,0.9980329375368767,0.06269175058580514,-97.84334936673999,151.6572747969629)"></path><line x1="-133.56324569684344" y1="139.9097828889103" x2="-134.08427220600547" y2="110.14236342255606" stroke-width="1" stroke="plum"></line><line x1="-133.61534834775964" y1="136.93304094227489" x2="-134.03216955508927" y2="113.11910536919149" stroke-width="1" stroke="black"></line><path d="M-0.000006005859376045919,34.91409003366214V-34.91407574573597" fill="none" stroke-width="1" stroke="black" transform="matrix(0.37241044974253085,-0.9280681316167289,0.9280681316167289,0.37241044974253085,-101.42112353524016,138.02844111609687)"></path><line x1="-134.08427220600547" y1="110.14236342255606" x2="-118.63938287981485" y2="89.25847054303343" stroke-width="1" stroke="plum"></line><line x1="-132.5397832733864" y1="108.05397413460379" x2="-120.18387181243392" y2="91.34685983098568" stroke-width="1" stroke="black"></line><path d="M-0.000006005859376045919,33.81774423597054V-33.817730396703006" fill="none" stroke-width="1" stroke="black" transform="matrix(0.5982322313757396,-0.8013227797480886,0.8013227797480886,0.5982322313757396,-99.26291397636338,119.93127481079377)"></path><line x1="-118.63938287981485" y1="89.25847054303343" x2="-80.85514174441909" y2="79.77895577595665" stroke-width="1" stroke="plum"></line><line x1="-114.86095876627526" y1="88.31051906632575" x2="-84.63356585795866" y2="80.72690725266432" stroke-width="1" stroke="black"></line><path d="M-0.000006005859376045919,35.92659049227987V-35.926575790007185" fill="none" stroke-width="1" stroke="black" transform="matrix(0.6792574605753489,-0.7339000628510182,0.7339000628510182,0.6792574605753489,-73.38074935852181,108.92210976964131)"></path><line x1="-80.85514174441909" y1="79.77895577595665" x2="-31.293297518194667" y2="74.53263909531876" stroke-width="1" stroke="plum"></line><line x1="-75.89895732179664" y1="79.25432410789287" x2="-36.249481940817105" y2="75.05727076338255" stroke-width="1" stroke="black"></line><path d="M-0.000006005859376045919,28.518232168320612V-28.518220497777424" fill="none" stroke-width="1" stroke="black" transform="matrix(0.9718946587940196,-0.2354161681101286,0.2354161681101286,0.9718946587940196,-49.36056987438746,104.87250682909252)"></path><line x1="-31.293297518194667" y1="74.53263909531876" x2="19.207808528959802" y2="93.52946737019516" stroke-width="1" stroke="plum"></line><line x1="-26.24318691347922" y1="76.4323219228064" x2="14.157697924244355" y2="91.62978454270753" stroke-width="1" stroke="black"></line><path d="M-0.000006005859376045919,28.058675640608058V-28.058664158129623" fill="none" stroke-width="1" stroke="black" transform="matrix(0.984794437179841,-0.17372367858078583,0.17372367858078583,0.984794437179841,-1.1682904408872488,111.66307310679116)"></path><line x1="19.207808528959802" y1="93.52946737019516" x2="69.90017403325803" y2="128.8124082559517" stroke-width="1" stroke="plum"></line><line x1="24.277045079389623" y1="97.05776145877081" x2="64.8309374828282" y2="125.28411416737606" stroke-width="1" stroke="black"></line><path d="M-0.000006005859376045919,24.170542323710084V-24.17053243237613" fill="none" stroke-width="1" stroke="black" transform="matrix(0.9867558168933176,-0.16221269317535408,0.16221269317535408,0.9867558168933176,48.47475837592424,135.02135420780218)"></path><line x1="69.90017403325803" y1="128.8124082559517" x2="119.3088493140982" y2="155.5423499056789" stroke-width="1" stroke="plum"></line><line x1="74.84104156134204" y1="131.4854024209244" x2="114.36798178601417" y2="152.86935574070617" stroke-width="1" stroke="black"></line><path d="M-0.000006005859376045919,21.071171087447897V-21.071162464472575" fill="none" stroke-width="1" stroke="black" transform="matrix(0.46971861043264884,0.8828161909555248,-0.8828161909555248,0.46971861043264884,76.00254547305349,152.07490515369693)"></path><line x1="119.3088493140982" y1="155.5423499056789" x2="161.02285146563986" y2="171.70161324275574" stroke-width="1" stroke="plum"></line><line x1="123.48024952925238" y1="157.1582762393866" x2="156.8514512504857" y2="170.08568690904806" stroke-width="1" stroke="black"></line><path d="M-0.000006005859376045919,21.06389454794443V-21.06388592794689" fill="none" stroke-width="1" stroke="black" transform="matrix(0.3495454248697442,0.9369194180678667,-0.9369194180678667,0.3495454248697442,120.4306831313097,170.98477582507934)"></path><line x1="161.02285146563986" y1="171.70161324275574" x2="195.09221158373612" y2="173.63573805773402" stroke-width="1" stroke="plum"></line><line x1="164.42978747744948" y1="171.89502572425357" x2="191.6852755719265" y2="173.44232557623621" stroke-width="1" stroke="black"></line><path d="M-0.000006005859376045919,22.336070721722518V-22.336061581111117" fill="none" stroke-width="1" stroke="black" transform="matrix(0.17984498985822775,0.9836949626906167,-0.9836949626906167,0.17984498985822775,156.08565742335458,176.68571566699504)"></path><line x1="195.09221158373612" y1="173.63573805773402" x2="215.99365610396106" y2="161.33976673364782" stroke-width="1" stroke="plum"></line><line x1="197.1823560357586" y1="172.4061409253254" x2="213.90351165193854" y2="162.56936386605642" stroke-width="1" stroke="black"></line><path d="M-0.000006005859376045919,34.922198717187264V-34.922184425942774" fill="none" stroke-width="1" stroke="black" transform="matrix(0.1817882804795213,0.983337694324945,-0.983337694324945,0.1817882804795213,171.20263058408753,173.83620942434007)"></path><line x1="215.99365610396106" y1="161.33976673364782" x2="220.12246223845574" y2="136.72729444628862" stroke-width="1" stroke="plum"></line><line x1="216.40653671741055" y1="158.8785195049119" x2="219.70958162500628" y2="139.18854167502454" stroke-width="1" stroke="black"></line><path d="M-0.000006005859376045919,34.14499594996121V-34.14498197677215" fill="none" stroke-width="1" stroke="black" transform="matrix(0.24152186091010888,0.9703953785455277,-0.9703953785455277,0.24152186091010888,184.92392396924183,157.28030312145214)"></path><line x1="220.12246223845574" y1="136.72729444628862" x2="205.34395610831163" y2="102.12246180649367" stroke-width="1" stroke="plum"></line><line x1="218.6446116254413" y1="133.26681118230914" x2="206.82180672132603" y2="105.58294507047317" stroke-width="1" stroke="black"></line><path d="M-0.000006005859376045919,34.07029626461948V-34.070282321999834" fill="none" stroke-width="1" stroke="black" transform="matrix(0.27485217350694857,0.9614864963786576,-0.9614864963786576,0.27485217350694857,179.9750904945868,128.78918209058907)"></path><line x1="205.34395610831163" y1="102.12246180649367" x2="178.80724556595493" y2="59.34463186093193" stroke-width="1" stroke="plum"></line><line x1="202.69028505407596" y1="97.84467881193751" x2="181.46091662019057" y2="63.62241485548811" stroke-width="1" stroke="black"></line><path d="M-0.000006005859376045919,35.60051912948258V-35.60050456064838" fill="none" stroke-width="1" stroke="black" transform="matrix(0.7521069646239282,0.6590410562052877,-0.6590410562052877,0.7521069646239282,168.6134039544564,107.50894347636927)"></path><line x1="178.80724556595493" y1="59.34463186093193" x2="144.69466919183137" y2="34.358652042655805" stroke-width="1" stroke="plum"></line><line x1="175.39598792854255" y1="56.84603387910432" x2="148.1059268292437" y2="36.85725002448341" stroke-width="1" stroke="black"></line><path d="M-0.000006005859376045919,35.98500021386138V-35.98498548768563" fill="none" stroke-width="1" stroke="black" transform="matrix(0.8306105836667532,0.5568537135557017,-0.5568537135557017,0.8306105836667532,141.71258457986968,76.74116120423152)"></path><line x1="144.69466919183137" y1="34.358652042655805" x2="100.5083274145923" y2="33.47603478978222" stroke-width="1" stroke="plum"></line><line x1="140.27603501410746" y1="34.270390317368445" x2="104.9269615923162" y2="33.56429651506958" stroke-width="1" stroke="black"></line><path d="M-0.000006005859376045919,37.0817353713787V-37.08172019638498" fill="none" stroke-width="1" stroke="black" transform="matrix(0.831274774385501,0.5558617179392141,-0.5558617179392141,0.831274774385501,101.98918951668406,64.74245159930702)"></path><line x1="100.5083274145923" y1="33.47603478978222" x2="49.40995881102141" y2="37.445078949217724" stroke-width="1" stroke="plum"></line><line x1="95.39849055423521" y1="33.872939205725764" x2="54.5197956713785" y2="37.04817453327417" stroke-width="1" stroke="black"></line><path d="M-0.000006005859376045919,30.142005313858366V-30.141992978816955" fill="none" stroke-width="1" stroke="black" transform="matrix(0.9996237697083062,-0.027428434774062944,0.027428434774062944,0.9996237697083062,75.78589077520657,65.59121421033453)"></path><line x1="49.40995881102141" y1="37.445078949217724" x2="1.9364923466619686" y2="63.07109300076535" stroke-width="1" stroke="plum"></line><line x1="44.66261216458547" y1="40.00768035437248" x2="6.683838993097915" y2="60.50849159561059" stroke-width="1" stroke="black"></line><path d="M-0.000006005859376045919,28.007198577972837V-28.00718711656041" fill="none" stroke-width="1" stroke="black" transform="matrix(0.9998435275169912,-0.0176895585693834,0.0176895585693834,0.9998435275169912,26.16866033338042,78.2608951446106)"></path><line x1="1.9364923466619686" y1="63.07109300076535" x2="-42.76134411254554" y2="103.96273158824069" stroke-width="1" stroke="plum"></line><line x1="-2.533291299258778" y1="67.16025685951288" x2="-38.29156046662479" y2="99.87356772949315" stroke-width="1" stroke="black"></line><path d="M-0.000006005859376045919,23.40046954769925V-23.400459971502908" fill="none" stroke-width="1" stroke="black" transform="matrix(0.9991492090064538,0.041241461440858745,-0.041241461440858745,0.9991492090064538,-21.377495053857082,106.8974673840143)"></path><line x1="-42.76134411254554" y1="103.96273158824069" x2="-89.74886166587228" y2="135.0431739456786" stroke-width="1" stroke="plum"></line><line x1="-47.46009586787821" y1="107.07077582398449" x2="-85.05010991053962" y2="131.9351297099348" stroke-width="1" stroke="black"></line><path d="M-0.000006005859376045919,20.936309522914776V-20.93630095512898" fill="none" stroke-width="1" stroke="black" transform="matrix(0.3432715016491953,-0.9392362195717894,0.9392362195717894,0.3432715016491953,-46.5909768780896,126.68978750983965)"></path><line x1="-89.74886166587228" y1="135.0431739456786" x2="-132.60579627425045" y2="153.81832488050128" stroke-width="1" stroke="plum"></line><line x1="-94.0345551267101" y1="136.92068903916086" x2="-128.32010281341263" y2="151.940809787019" stroke-width="1" stroke="black"></line><path d="M-0.000006005859376045919,20.167770971444885V-20.16776271816885" fill="none" stroke-width="1" stroke="black" transform="matrix(0.24383277822914054,-0.9698172901433851,0.9698172901433851,0.24383277822914054,-91.61828907162122,149.348308879731)"></path><line x1="-132.60579627425045" y1="153.81832488050128" x2="-169.1048378814096" y2="158.07338092400516" stroke-width="1" stroke="plum"></line><line x1="-136.25570043496637" y1="154.24383048485166" x2="-165.45493372069367" y2="157.6478753196548" stroke-width="1" stroke="black"></line><path d="M-0.000006005859376045919,20.698716631553328V-20.698708160997896" fill="none" stroke-width="1" stroke="black" transform="matrix(0.10957428615738816,-0.9939786093337717,0.9939786093337717,0.10957428615738816,-130.28124974904378,158.2138968658681)"></path><line x1="-169.1048378814096" y1="158.07338092400516" x2="-195.26763142404792" y2="146.8741554337882" stroke-width="1" stroke="plum"></line><line x1="-171.72111723567343" y1="156.95345837498346" x2="-192.65135206978408" y2="147.9940779828099" stroke-width="1" stroke="black"></line><path d="M-0.000006005859376045919,34.883941991548674V-34.88392771596002" fill="none" stroke-width="1" stroke="black" transform="matrix(0.10980655836814407,-0.9939529766238157,0.9939529766238157,0.10980655836814407,-147.51325820537502,156.3042536631084)"></path><line x1="-195.26763142404792" y1="146.8741554337882" x2="-206.84631138565925" y2="122.02093552846566" stroke-width="1" stroke="plum"></line><line x1="-196.42549942020906" y1="144.38883344325595" x2="-205.6884433894981" y2="124.50625751899791" stroke-width="1" stroke="black"></line><path d="M-0.000006005859376045919,33.89431687954174V-33.89430300893831" fill="none" stroke-width="1" stroke="black" transform="matrix(0.20390447716065463,-0.978990788615419,0.978990788615419,0.20390447716065463,-167.87476787575736,141.35874692264125)"></path><line x1="-206.84631138565925" y1="122.02093552846566" x2="-198.8044076530424" y2="87.0434617847304" stroke-width="1" stroke="plum"></line><line x1="-206.04212101239756" y1="118.52318815409214" x2="-199.6085980263041" y2="90.54120915910391" stroke-width="1" stroke="black"></line><path d="M-0.000006005859376045919,32.39131866100708V-32.391305405477034" fill="none" stroke-width="1" stroke="black" transform="matrix(0.2847135033011794,-0.958612654328102,0.958612654328102,0.2847135033011794,-171.77465087332808,113.75444188111913)"></path><line x1="-198.8044076530424" y1="87.0434617847304" x2="-180.24616693153519" y2="44.34997638376832" stroke-width="1" stroke="plum"></line><line x1="-196.9485835808917" y1="82.7741132446342" x2="-182.1019910036859" y2="48.61932492386454" stroke-width="1" stroke="black"></line><path d="M-0.000006005859376045919,36.620810333778245V-36.62079534740931" fill="none" stroke-width="1" stroke="black" transform="matrix(0.7290449258844885,-0.684465847243002,0.684465847243002,0.7290449258844885,-164.45960638827788,92.39492637283476)"></path><line x1="-180.24616693153519" y1="44.34997638376832" x2="-152.10509421953537" y2="16.182825766108316" stroke-width="1" stroke="plum"></line><line x1="-177.4320596603352" y1="41.53326132200232" x2="-154.91920149073536" y2="18.999540827874316" stroke-width="1" stroke="black"></line><path d="M-0.000006005859376045919,36.01750258914703V-36.01748784967029" fill="none" stroke-width="1" stroke="black" transform="matrix(0.8675036486142481,-0.4974308189496979,0.4974308189496979,0.8675036486142481,-148.2594238017044,61.51170625684119)"></path><line x1="-152.10509421953537" y1="16.182825766108316" x2="-108.22123414662913" y2="5.966338091520083" stroke-width="1" stroke="plum"></line><line x1="-147.71670821224475" y1="15.161176998649491" x2="-112.60962015391975" y2="6.987986858978906" stroke-width="1" stroke="black"></line><path d="M-0.000006005859376045919,35.77194506083203V-35.771930421845035" fill="none" stroke-width="1" stroke="black" transform="matrix(0.923904674370102,-0.3826227289080927,0.3826227289080927,0.923904674370102,-116.47601171734543,44.1244392652036)"></path><line x1="-108.22123414662913" y1="5.966338091520083" x2="-55.41895836547252" y2="-6.335324270218079" stroke-width="1" stroke="plum"></line><line x1="-102.94100656851346" y1="4.736171855346267" x2="-60.699185943588176" y2="-5.105158034044264" stroke-width="1" stroke="black"></line><path d="M-0.000006005859376045919,36.68086333061695V-36.68084831967247" fill="none" stroke-width="1" stroke="black" transform="matrix(0.9488091666960117,-0.31584990928227263,0.31584990928227263,0.9488091666960117,-70.23445449210455,34.61863614049999)"></path><line x1="-55.41895836547252" y1="-6.335324270218079" x2="-6.595380666860619" y2="-37.49032944671322" stroke-width="1" stroke="plum"></line><line x1="-50.53660059561133" y1="-9.450824787867594" x2="-11.477738436721808" y2="-34.3748289290637" stroke-width="1" stroke="black"></line><path d="M-0.000006005859376045919,48.98045691967303V-48.98043687535421" fill="none" stroke-width="1" stroke="black" transform="matrix(0.9733424485335475,-0.22935666086407533,0.22935666086407533,0.9733424485335475,-19.773180166423415,25.761918008481686)"></path><path d="M-7.377646947629374,0A7.377646947629374,29.510587790517494,0,1,1,7.377646947629374,0A7.377646947629374,29.510587790517494,0,1,1,-7.377646947629374,0" fill="none" stroke-width="1" stroke="black" transform="matrix(0.7129244686798984,0.7012408302127626,-0.7012408302127626,0.7129244686798984,15.656263507643793,-60.112716673580074)"></path><path d="M-7.103029132230504,0A7.103029132230504,28.412116528922017,0,1,1,7.103029132230504,0A7.103029132230504,28.412116528922017,0,1,1,-7.103029132230504,0" fill="none" stroke-width="1" stroke="black" transform="matrix(0.6197517401423621,0.7847979234111888,-0.7847979234111888,0.6197517401423621,61.88400451184145,-101.66893041649746)"></path><path d="M-6.1979455878880625,0A6.1979455878880625,24.79178235155225,0,1,1,6.1979455878880625,0A6.1979455878880625,24.79178235155225,0,1,1,-6.1979455878880625,0" fill="none" stroke-width="1" stroke="black" transform="matrix(0.5108194632872388,0.8596880108079542,-0.8596880108079542,0.5108194632872388,108.77751860410426,-134.22009559357375)"></path><path d="M-4.755453808067696,0A4.755453808067696,19.021815232270782,0,1,1,4.755453808067696,0A4.755453808067696,19.021815232270782,0,1,1,-4.755453808067696,0" fill="none" stroke-width="1" stroke="black" transform="matrix(0.32910965787302254,0.9442917097458295,-0.9442917097458295,0.32910965787302254,151.00906750984615,-154.56889995698282)"></path><path d="M-3.1155981814281084,0A3.1155981814281084,12.462392725712434,0,1,1,3.1155981814281084,0A3.1155981814281084,12.462392725712434,0,1,1,-3.1155981814281084,0" fill="none" stroke-width="1" stroke="black" transform="matrix(-0.07341583568140396,0.9973014163587661,-0.9973014163587661,-0.07341583568140396,183.68745927836488,-160.31656245877687)"></path><path d="M-2.3670745327190033,0A2.3670745327190033,9.468298130876013,0,1,1,2.3670745327190033,0A2.3670745327190033,9.468298130876013,0,1,1,-2.3670745327190033,0" fill="none" stroke-width="1" stroke="black" transform="matrix(-0.8258642941803919,0.5638689276755044,-0.5638689276755044,-0.8258642941803919,202.79244963378557,-150.92466317975163)"></path><path d="M-3.42945746884777,0A3.42945746884777,13.71782987539108,0,1,1,3.42945746884777,0A3.42945746884777,13.71782987539108,0,1,1,-3.42945746884777,0" fill="none" stroke-width="1" stroke="black" transform="matrix(-0.9868560806018223,-0.16160159708124658,0.16160159708124658,-0.9868560806018223,206.14949898606193,-127.96008986992747)"></path><path d="M-4.962411533039034,0A4.962411533039034,19.849646132156135,0,1,1,4.962411533039034,0A4.962411533039034,19.849646132156135,0,1,1,-4.962411533039034,0" fill="none" stroke-width="1" stroke="black" transform="matrix(-0.8980982223663555,-0.43979493287484817,0.43979493287484817,-0.8980982223663555,194.3789645724779,-94.23486865371063)"></path><line x1="184.99211103669177" y1="-75.06612466888201" x2="152.6222568074878" y2="-50.28983240231769" stroke-width="1" stroke="plum"></line><line x1="181.75512561377138" y1="-72.58849544222558" x2="155.8592422304082" y2="-52.76746162897412" stroke-width="1" stroke="black"></line><path d="M-0.000006005859376045919,49.39051680276361V-49.390496590635586" fill="none" stroke-width="1" stroke="black" transform="matrix(0.9979312758337644,0.06428972478394304,-0.06428972478394304,0.9979312758337644,165.63188270096435,-13.389648906482993)"></path><line x1="152.6222568074878" y1="-50.28983240231769" x2="107.49333429497067" y2="-45.47336291015752" stroke-width="1" stroke="plum"></line><line x1="148.10936455623607" y1="-49.80818545310167" x2="112.00622654622236" y2="-45.95500985937353" stroke-width="1" stroke="black"></line><path d="M-0.000006005859376045919,36.96214227474027V-36.96212714868775" fill="none" stroke-width="1" stroke="black" transform="matrix(0.9958711900659444,0.09077760074291251,-0.09077760074291251,0.9958711900659444,126.70246245740248,-11.07207359693434)"></path><line x1="107.49333429497067" y1="-45.47336291015752" x2="53.56868278580767" y2="-45.90845812284736" stroke-width="1" stroke="plum"></line><line x1="102.10086914405437" y1="-45.516872431426506" x2="58.96114793672396" y2="-45.86494860157838" stroke-width="1" stroke="black"></line><path d="M-0.000006005859376045919,36.60414524762804V-36.604130268078976" fill="none" stroke-width="1" stroke="black" transform="matrix(0.9976511986907067,0.06849880109166834,-0.06849880109166834,0.9976511986907067,78.02366960647494,-9.172749763487268)"></path><line x1="53.56868278580767" y1="-45.90845812284736" x2="0.8319092958739261" y2="-67.53844527899446" stroke-width="1" stroke="plum"></line><line x1="48.29500543681429" y1="-48.07145683846206" x2="6.1055866448673015" y2="-65.37544656337974" stroke-width="1" stroke="black"></line><path d="M-0.000006005859376045919,48.146608116073246V-48.14658841299116" fill="none" stroke-width="1" stroke="black" transform="matrix(0.999898139893432,0.014272695528687524,-0.014272695528687524,0.999898139893432,26.513114495667477,-8.581759659874809)"></path><path d="M-7.260873567192081,0A7.260873567192081,29.043494268768324,0,1,1,7.260873567192081,0A7.260873567192081,29.043494268768324,0,1,1,-7.260873567192081,0" fill="none" stroke-width="1" stroke="black" transform="matrix(0.5961988191570925,-0.8028368252862399,0.8028368252862399,0.5961988191570925,-24.240334504079907,-86.15747429752722)"></path><path d="M-7.018994299188148,0A7.018994299188148,28.075977196752593,0,1,1,7.018994299188148,0A7.018994299188148,28.075977196752593,0,1,1,-7.018994299188148,0" fill="none" stroke-width="1" stroke="black" transform="matrix(0.5074173622802327,-0.8617004238461131,0.8617004238461131,0.5074173622802327,-75.32664437966332,-120.09503911457196)"></path><path d="M-6.19169061019197,0A6.19169061019197,24.76676244076788,0,1,1,6.19169061019197,0A6.19169061019197,24.76676244076788,0,1,1,-6.19169061019197,0" fill="none" stroke-width="1" stroke="black" transform="matrix(0.4054665418995913,-0.9141098858452341,0.9141098858452341,0.4054665418995913,-125.684304420332,-146.21152493556446)"></path><path d="M-4.802254643645799,0A4.802254643645799,19.209018574583197,0,1,1,4.802254643645799,0A4.802254643645799,19.209018574583197,0,1,1,-4.802254643645799,0" fill="none" stroke-width="1" stroke="black" transform="matrix(0.2451608438281806,-0.9694824189501604,0.9694824189501604,0.2451608438281806,-170.0524207438071,-162.07323754176107)"></path><path d="M-3.1720399457649617,0A3.1720399457649617,12.688159783059847,0,1,1,3.1720399457649617,0A3.1720399457649617,12.688159783059847,0,1,1,-3.1720399457649617,0" fill="none" stroke-width="1" stroke="black" transform="matrix(-0.07542327235171428,-0.9971516083263162,0.9971516083263162,-0.07542327235171428,-203.68126453705966,-166.1079866513269)"></path><path d="M-2.1500946926335596,0A2.1500946926335596,8.600378770534238,0,1,1,2.1500946926335596,0A2.1500946926335596,8.600378770534238,0,1,1,-2.1500946926335596,0" fill="none" stroke-width="1" stroke="black" transform="matrix(-0.7171470238772406,-0.6969219082106808,0.6969219082106808,-0.7171470238772406,-223.73052401929058,-158.44699894114905)"></path><path d="M-2.838810870211737,0A2.838810870211737,11.355243480846948,0,1,1,2.838810870211737,0A2.838810870211737,11.355243480846948,0,1,1,-2.838810870211737,0" fill="none" stroke-width="1" stroke="black" transform="matrix(-0.9976034496568617,0.06919073082956609,-0.06919073082956609,-0.9976034496568617,-229.33064744822377,-139.63434721244784)"></path><path d="M-4.933339600528328,0A4.933339600528328,19.73335840211331,0,1,1,4.933339600528328,0A4.933339600528328,19.73335840211331,0,1,1,-4.933339600528328,0" fill="none" stroke-width="1" stroke="black" transform="matrix(-0.9007616896949164,0.43431368661136965,-0.43431368661136965,-0.9007616896949164,-219.27027623098428,-108.34070922768497)"></path><line x1="-210.0547196322259" y1="-89.22774873559577" x2="-177.8742125267219" y2="-65.42465971923852" stroke-width="1" stroke="plum"></line><line x1="-206.83666892167548" y1="-86.84743983396005" x2="-181.09226323727228" y2="-67.80496862087425" stroke-width="1" stroke="black"></line><path d="M-0.000006005859376045919,50.00549799593027V-50.005477532132915" fill="none" stroke-width="1" stroke="black" transform="matrix(0.9682272217646591,-0.2500720836756666,0.2500720836756666,0.9682272217646591,-181.45949220142296,-28.909533100847842)"></path><line x1="-177.8742125267219" y1="-65.42465971923852" x2="-136.46325377134295" y2="-69.33763548307775" stroke-width="1" stroke="plum"></line><line x1="-173.733116651184" y1="-65.81595729562244" x2="-140.60434964688085" y2="-68.94633790669383" stroke-width="1" stroke="black"></line><path d="M-0.000006005859376045919,37.338085751794964V-37.33807047189473" fill="none" stroke-width="1" stroke="black" transform="matrix(0.9455516086677107,-0.32547220364557156,0.32547220364557156,0.9455516086677107,-145.01622992452008,-32.076070852002545)"></path><line x1="-136.46325377134295" y1="-69.33763548307775" x2="-86.77125366572625" y2="-82.60321354246327" stroke-width="1" stroke="plum"></line><line x1="-131.49405376078127" y1="-70.6641932890163" x2="-91.74045367628791" y2="-81.27665573652472" stroke-width="1" stroke="black"></line><path d="M-0.000006005859376045919,36.64498206009845V-36.6449670638377" fill="none" stroke-width="1" stroke="black" transform="matrix(0.9306506835028968,-0.3659088756720598,0.3659088756720598,0.9306506835028968,-98.2085360685823,-41.86675704073471)"></path><line x1="-86.77125366572625" y1="-82.60321354246327" x2="-38.39722196699545" y2="-113.38908204958005" stroke-width="1" stroke="plum"></line><line x1="-81.93385049585318" y1="-85.68180039317494" x2="-43.23462513686853" y2="-110.31049519886838" stroke-width="1" stroke="black"></line><path d="M-0.000006005859376045919,37.069147989712334V-37.06913281986976" fill="none" stroke-width="1" stroke="black" transform="matrix(0.9236118112357078,-0.38332913031218385,0.38332913031218385,0.9236118112357078,-48.3745604646193,-63.758655093546594)"></path><line x1="-38.39722196699545" y1="-113.38908204958005" x2="7.111905286463255" y2="-156.0640628913705" stroke-width="1" stroke="plum"></line><line x1="-33.84630924164958" y1="-117.65658013375909" x2="2.5609925611173843" y2="-151.79656480719146" stroke-width="1" stroke="black"></line><path d="M-0.000006005859376045919,36.410682222423034V-36.41066732204502" fill="none" stroke-width="1" stroke="black" transform="matrix(0.9221536480225221,-0.38682379637084696,0.38682379637084696,0.9221536480225221,-1.5581469274722282,-101.15033909116114)"></path><line x1="7.111905286463255" y1="-156.0640628913705" x2="55.02567848090053" y2="-193.0307446441169" stroke-width="1" stroke="plum"></line><line x1="11.90328260590698" y1="-159.76073106664515" x2="50.234301161456806" y2="-189.33407646884226" stroke-width="1" stroke="black"></line><path d="M-0.000006005859376045919,35.60649650754082V-35.606481936260494" fill="none" stroke-width="1" stroke="black" transform="matrix(0.9210488074043705,-0.38944716506733873,0.38944716506733873,0.9210488074043705,44.93563412093788,-141.75209249629796)"></path><line x1="55.02567848090053" y1="-193.0307446441169" x2="101.64214390817855" y2="-219.99653056446024" stroke-width="1" stroke="plum"></line><line x1="59.68732502362833" y1="-195.72732323615125" x2="96.98049736545074" y2="-217.29995197242593" stroke-width="1" stroke="black"></line><path d="M-0.000006005859376045919,35.298972103627V-35.29895765819518" fill="none" stroke-width="1" stroke="black" transform="matrix(0.9216161275199143,-0.38810270998177426,0.38810270998177426,0.9216161275199143,92.03353109709246,-173.98154543233562)"></path><line x1="101.64214390817855" y1="-219.99653056446024" x2="142.63017585911743" y2="-234.01618568859607" stroke-width="1" stroke="plum"></line><line x1="105.74094710327245" y1="-221.3984960768738" x2="138.53137266402354" y2="-232.61422017618247" stroke-width="1" stroke="black"></line><path d="M-0.000006005859376045919,35.09086368976507V-35.09084932949765" fill="none" stroke-width="1" stroke="black" transform="matrix(0.9289273855241722,-0.37026195108764015,0.37026195108764015,0.9289273855241722,135.12896506371055,-194.4095036317329)"></path><line x1="142.63017585911743" y1="-234.01618568859607" x2="174.04982837167972" y2="-233.50084852125494" stroke-width="1" stroke="plum"></line><line x1="145.77214111037367" y1="-233.96465197186194" x2="170.9078631204235" y2="-233.55238223798904" stroke-width="1" stroke="black"></line><path d="M-0.000006005859376045919,34.96189353538939V-34.96187922790055" fill="none" stroke-width="1" stroke="black" transform="matrix(0.9452831196421818,-0.326251166617906,0.326251166617906,0.9452831196421818,169.74635502101268,-200.7096390561205)"></path><line x1="174.04982837167972" y1="-233.50084852125494" x2="192.7724507084425" y2="-218.57115643045515" stroke-width="1" stroke="plum"></line><line x1="175.922090605356" y1="-232.00787931217496" x2="190.90018847476625" y2="-220.06412563953512" stroke-width="1" stroke="black"></line><path d="M-0.000006005859376045919,34.90721515865029V-34.90720087353753" fill="none" stroke-width="1" stroke="black" transform="matrix(0.968284376595488,-0.24985068749372508,0.24985068749372508,0.968284376595488,192.1327269855481,-192.23590105120556)"></path><line x1="192.7724507084425" y1="-218.57115643045515" x2="196.84624792869232" y2="-191.1966613722288" stroke-width="1" stroke="plum"></line><line x1="193.17983043046746" y1="-215.8337069246325" x2="196.43886820666734" y2="-193.9341108780514" stroke-width="1" stroke="black"></line><path d="M-0.000006005859376045919,34.98985389440829V-34.989839575477205" fill="none" stroke-width="1" stroke="black" transform="matrix(0.9893075648807753,-0.14584423906918803,0.14584423906918803,0.9893075648807753,199.91241604837109,-170.26819117233703)"></path><line x1="196.84624792869232" y1="-191.1966613722288" x2="185.68952341401175" y2="-155.49325774502543" stroke-width="1" stroke="plum"></line><line x1="195.73057547722425" y1="-187.62632100950847" x2="186.8051958654798" y2="-159.06359810774578" stroke-width="1" stroke="black"></line><path d="M-0.000006005859376045919,35.62706698571694V-35.627052406018535" fill="none" stroke-width="1" stroke="black" transform="matrix(0.9992276308692937,-0.03929556854581105,0.03929556854581105,0.9992276308692937,192.66787087241858,-137.7454188815256)"></path><line x1="185.68952341401175" y1="-155.49325774502543" x2="158.6854663819974" y2="-130.37260332901172" stroke-width="1" stroke="plum"></line><line x1="182.9891177108103" y1="-152.98119230342408" x2="161.38587208519883" y2="-132.8846687706131" stroke-width="1" stroke="black"></line><path d="M-0.000006005859376045919,36.146758118240044V-36.14674332586795" fill="none" stroke-width="1" stroke="black" transform="matrix(0.9991141457848329,0.0420823441914024,-0.0420823441914024,0.9991141457848329,170.66635527458538,-106.818201876881)"></path><line x1="158.6854663819974" y1="-130.37260332901172" x2="117.47819379407768" y2="-123.03993890713438" stroke-width="1" stroke="plum"></line><line x1="154.56473912320544" y1="-129.639336886824" x2="121.59892105286966" y2="-123.77320534932213" stroke-width="1" stroke="black"></line><path d="M-0.000006005859376045919,35.65442148971741V-35.654406898824696" fill="none" stroke-width="1" stroke="black" transform="matrix(0.9948587124864504,0.10127261322688436,-0.10127261322688436,0.9948587124864504,134.47101528824464,-91.23516741279315)"></path><line x1="117.47819379407768" y1="-123.03993890713438" x2="66.38549517348423" y2="-124.87569201712891" stroke-width="1" stroke="plum"></line><line x1="112.36892393201835" y1="-123.22351421813384" x2="71.49476503554358" y2="-124.69211670612945" stroke-width="1" stroke="black"></line><path d="M-0.000006005859376045919,35.591815649238434V-35.59180108396597" fill="none" stroke-width="1" stroke="black" transform="matrix(0.9895565966694859,0.14414486459081502,-0.14414486459081502,0.9895565966694859,86.80146934627108,-88.73770729120791)"></path><line x1="66.38549517348423" y1="-124.87569201712891" x2="14.431734611420426" y2="-146.32039228754752" stroke-width="1" stroke="plum"></line><line x1="61.19011911727785" y1="-127.02016204417077" x2="19.627110667626802" y2="-144.17592226050567" stroke-width="1" stroke="black"></line><path d="M-0.000006005859376045919,35.98780259366086V-35.98778786633829" fill="none" stroke-width="1" stroke="black" transform="matrix(0.9862667890382968,0.16515998558999595,-0.16515998558999595,0.9862667890382968,34.4648725868181,-100.10447535249673)"></path><line x1="14.431734611420426" y1="-146.32039228754752" x2="-36.353733237666376" y2="-181.49587647088202" stroke-width="1" stroke="plum"></line><line x1="9.353187826511746" y1="-149.83794070588098" x2="-31.275186452757698" y2="-177.97832805254856" stroke-width="1" stroke="black"></line><path d="M-0.000006005859376045919,35.49444417188129V-35.494429646456254" fill="none" stroke-width="1" stroke="black" transform="matrix(0.9857262603497491,0.16835599085538566,-0.16835599085538566,0.9857262603497491,-16.936698950325383,-128.920336222433)"></path><line x1="-36.353733237666376" y1="-181.49587647088202" x2="-89.61318883726298" y2="-212.0624244333919" stroke-width="1" stroke="plum"></line><line x1="-41.67967879762604" y1="-184.552531267133" x2="-84.28724327730332" y2="-209.0057696371409" stroke-width="1" stroke="black"></line><path d="M-0.000006005859376045919,34.95202490904028V-34.95201060558999" fill="none" stroke-width="1" stroke="black" transform="matrix(0.9872921169123111,0.15891593967506026,-0.15891593967506026,0.9872921169123111,-68.53789240534343,-162.27129929885254)"></path><line x1="-89.61318883726298" y1="-212.0624244333919" x2="-141.91823078262777" y2="-233.83154031871803" stroke-width="1" stroke="plum"></line><line x1="-94.84369303179946" y1="-214.23933602192452" x2="-136.6877265880913" y2="-231.6546287301854" stroke-width="1" stroke="black"></line><path d="M-0.000006005859376045919,34.81823033142296V-34.81821608272555" fill="none" stroke-width="1" stroke="black" transform="matrix(0.9917495543621356,0.128190566823403,-0.128190566823403,0.9917495543621356,-120.22907645615398,-188.41602569499383)"></path><line x1="-141.91823078262777" y1="-233.83154031871803" x2="-189.02055145532765" y2="-243.87388302295497" stroke-width="1" stroke="plum"></line><line x1="-146.62846284989777" y1="-234.83577458914172" x2="-184.31031938805765" y2="-242.86964875253128" stroke-width="1" stroke="black"></line><path d="M-0.000006005859376045919,34.6122692921808V-34.612255127769025" fill="none" stroke-width="1" stroke="black" transform="matrix(0.9982232496223364,0.059584762426500563,-0.059584762426500563,0.9982232496223364,-167.5317540062262,-204.3019479413394)"></path><line x1="-189.02055145532765" y1="-243.87388302295497" x2="-226.82127117828836" y2="-240.7353792306777" stroke-width="1" stroke="plum"></line><line x1="-192.80062342762372" y1="-243.56003264372725" x2="-223.04119920599229" y2="-241.0492296099054" stroke-width="1" stroke="black"></line><path d="M-0.000006005859376045919,34.3415344745879V-34.34152042096919" fill="none" stroke-width="1" stroke="black" transform="matrix(0.9984556323724235,-0.055554929428303916,0.055554929428303916,0.9984556323724235,-206.013070699047,-208.0161414347186)"></path><line x1="-226.82127117828836" y1="-240.7353792306777" x2="-252.05563309453797" y2="-224.87525083668507" stroke-width="1" stroke="plum"></line><line x1="-229.34470736991332" y1="-239.14936639127842" x2="-249.532196902913" y2="-226.46126367608434" stroke-width="1" stroke="black"></line><path d="M-0.000006005859376045919,34.19970703598169V-34.199693040403154" fill="none" stroke-width="1" stroke="black" transform="matrix(0.9784075199153025,-0.2066850864798594,0.2066850864798594,0.9784075199153025,-232.3698861902715,-199.34407386862577)"></path><line x1="-252.05563309453797" y1="-224.87525083668507" x2="-262.6156052734496" y2="-198.02787355928686" stroke-width="1" stroke="plum"></line><line x1="-253.11163031242916" y1="-222.19051310894525" x2="-261.55960805555844" y2="-200.71261128702668" stroke-width="1" stroke="black"></line><path d="M-0.000006005859376045919,34.68794799474465V-34.6879337993628" fill="none" stroke-width="1" stroke="black" transform="matrix(0.931670987455598,-0.3633031394490158,0.3633031394490158,0.931670987455598,-244.73338508505472,-179.1338171151323)"></path><line x1="-262.6156052734496" y1="-198.02787355928686" x2="-265.4538676869356" y2="-166.18647336851058" stroke-width="1" stroke="plum"></line><line x1="-262.89943151479815" y1="-194.84373354020926" x2="-265.170041445587" y2="-169.3706133875882" stroke-width="1" stroke="black"></line><path d="M-0.000006005859376045919,36.217367619705215V-36.217352798437524" fill="none" stroke-width="1" stroke="black" transform="matrix(0.8669466335745823,-0.49840097766125907,0.49840097766125907,0.8669466335745823,-245.98397412995405,-150.70865829680372)"></path></svg>